<svg width="16" height="16" viewBox="0 0 16 16" fill="none" xmlns="http://www.w3.org/2000/svg">
<rect x="0.5" y="0.5" width="15" height="15" rx="7.5" fill="#7FAD39"/>
<path d="M8.05824 11.14C9.61824 11.14 10.6182 10.22 10.6182 8.87C10.6182 7.79 9.96824 7.3 9.38824 7.15C9.75824 6.99 10.2782 6.49 10.2782 5.68C10.2782 4.62 9.32824 3.73 7.97824 3.73C6.49824 3.73 5.52824 4.58 5.52824 6.1L7.12824 6.26V6.18C7.12824 5.52 7.45824 5.12 8.01824 5.12C8.48824 5.12 8.80824 5.4 8.80824 5.83C8.80824 6.33 8.45824 6.66 7.97824 6.66H7.76824V7.86H7.99824C8.28824 7.86 9.00824 7.95 9.00824 8.77C9.00824 9.33 8.67824 9.74 8.01824 9.74C7.24824 9.74 7.00824 9.21 6.98824 8.53H5.36824C5.36824 10.23 6.31824 11.14 8.05824 11.14Z" fill="white"/>
<rect x="0.5" y="0.5" width="15" height="15" rx="7.5" stroke="white"/>
</svg>
